<?xml version="1.0" encoding="UTF-8"?>
<svg id="Layer_2" xmlns="http://www.w3.org/2000/svg" viewBox="0 0 1095.54 314.77">
  <defs>
    <style>
      .cls-1 {
        fill: #76b943;
      }

      .cls-1, .cls-2, .cls-3, .cls-4, .cls-5 {
        fill-rule: evenodd;
      }

      .cls-2 {
        fill: #ec2029;
      }

      .cls-6, .cls-7 {
        fill: #fff;
      }

      .cls-7 {
        font-family: Astrea, Astrea;
        font-size: 272px;
      }

      .cls-3 {
        fill: #ef4b27;
      }

      .cls-4 {
        fill: #e53728;
      }

      .cls-5 {
        fill: #ea1d28;
      }
    </style>
  </defs>
  <g id="Layer_4">
    <g>
      <path class="cls-1" d="M150.02,235.15s-.51-18.37-14.93-19.78c0,0,2.1,17.8,14.93,19.78h0Z"/>
      <path class="cls-2" d="M43.17,129.91c3.26-7.49,16.29-8.54,21.11-3.09,0,0,6.46,28.92,29.47,40.29,17.39,8.6,56.8,12.75,75.01,14.27,2.27-2.54,4.22-4.64,4.22-4.64l38.79,20.04,21.2,20.37s-55.57-26.68-56.69-25.24c-.78,1.01-7.46.19-11.47-.75-21.35,2.04-73.07,4.62-92-15.65-24.1-25.82-29.65-45.61-29.65-45.61h0Z"/>
      <path class="cls-5" d="M54.08,123.42c3.97-.26,7.97.87,10.2,3.39,0,0,6.46,28.92,29.47,40.29,17.39,8.6,56.8,12.75,75.01,14.27.63-.71,1.24-1.38,1.79-1.99l5.14,2.72c-21.89,2.04-62.22,2.39-91.27-12.14-21.85-10.93-28.43-35.21-30.35-46.55h0Z"/>
      <path class="cls-3" d="M74.27,95.68s-5.61,36.91,5.16,51.22c10.76,14.31,34.12,27.53,89.33,26.66,0,0-8.7-22.13-30.36-38.74-21.66-16.6-51.79-25.68-51.79-25.68l-12.34-13.47h0Z"/>
      <path class="cls-4" d="M73.77,99.64c-1.09,9.91-2.96,35.81,5.65,47.26,10.76,14.31,34.12,27.53,89.33,26.66,0,0-5.87-14.94-19.98-29.48-8.43,5.09-23.26,11-42.27,6.23-30.37-7.63-32.67-50.72-32.67-50.72l-.07.04h0Z"/>
      <path class="cls-6" d="M150.38,231.46c-.08-3.56-1.24-6.93-3.21-9.73-2.29-3.26-5.68-5.75-9.75-6.86-.02,1.09.09,2.22.34,3.38.48,2.26,1.48,4.57,2.99,6.73,1.76,2.5,3.54,4.04,5.56,5.05,1.21.61,2.57,1.06,4.08,1.44h0ZM45.44,90.6c-2.16.32-3.66,2.32-3.34,4.49.32,2.16,2.32,3.66,4.48,3.34,2.16-.32,3.66-2.33,3.34-4.49-.32-2.16-2.32-3.66-4.49-3.34h0ZM70.32,111.33c-6.16,43.64,25.52,57.74,57.05,62.18,14.57,2.06,29.18,2.1,40.25,2-7.33-13.78-16.63-25.07-27.51-34.26-12.13-10.25-26.25-17.92-41.77-23.58-8.64-3.15-14.11-5.98-18.03-9.31-4.07-3.45-6.35-7.3-8.6-12.41-3.5-7.97-10.51-10.48-10.53-10.48l-3.99-1.46,2.35-3.53c3.65-5.51,3.86-13.79,3.38-19.79-6.2,7.58-12.42,13.97-18.99,19.96-6.71,6.12-13.82,11.84-21.68,18.01,16.59,6.06,22.54,21.91,28.66,38.21,4.37,11.64,8.83,23.53,17.44,31.32,10.58,9.58,27.76,16.14,46.62,19.43,20.18,3.52,42.11,3.26,59.87-1.08l2.39.31c.13.07,40.84,22.23,56.67,28.43-.15-.17-.31-.35-.47-.53-6.99-7.83-20.52-19.38-26.37-22.7-5.68-3.23-21.92-12.31-32.86-18.42.63,1.21,1.24,2.44,1.84,3.69l2.27,4.73-5.25.06-1.93.02c-11.59.13-28.09.32-44.71-2.02-34.76-4.9-69.67-20.65-62.74-69.75l6.62.94h0ZM144.43,136.15c8.74,7.39,16.52,16.04,23.15,26.14,4.91,2.74,33.35,18.61,42.8,23.98,6.31,3.59,20.7,15.82,28.05,24.04,1.84,2.06,3.3,3.94,4.17,5.45,1.73,3.03,1.68,5.49-.74,7.07h-.01c-.91.6-2.06.85-3.46.71-8.72-.89-55.36-25.95-63.21-30.2-17.94,4.16-39.62,4.46-59.7,1.16l-8.03,26.2c10.93,5.68,20.51,9.17,30.37,11.2-.86-.9-1.7-1.93-2.53-3.1-2.05-2.91-3.4-6.07-4.06-9.19-.71-3.32-.64-6.61.18-9.55l.75-2.69,2.77.25c.51.05.85.08,1.01.1h0c.4.06.73.11.99.15,6.62,1.15,12.15,4.89,15.74,9.99,3.24,4.61,4.9,10.34,4.33,16.29,12.65.55,27.06-.28,45.83-1.36,2.67-.15-3.85.22,0,0h0s0,0,0,0l7.34-.41.39,6.67c-11.18.63.92-.04-7.34.43-59.13,3.41-76.27,4.4-128.18-30.76-2.62-1.77-5.03-3.28-7.3-4.57l-22.67,11.81-3.09-5.93,18.28-9.52c-9.29-3.72-17.29-3.73-30.25-3.74-1.74,0-3.59,0-4.39,0l.02-6.7c2.24,0,3.3,0,4.36.01,20.52.02,29.45.03,48.78,13.12,1.46.99,2.89,1.95,4.3,2.88l12.64-16.19c-12.7-3.94-23.89-9.55-31.85-16.77-9.83-8.9-14.58-21.54-19.22-33.92-4.79-12.77-9.47-25.23-19.67-31.73-8.19-5.22-15.77-3.62-24.97-3.13,7.54-4.1,14.18-7.83,20.9-13.15,6.61-5.23,12.7-10.2,18.53-15.52,7.99-7.29,15.45-15.2,23.04-25.28l4.38-5.82,1.57,7.12c.01.05,3.84,17.15-1.51,29.17,3.25,1.97,8.05,5.8,10.94,12.38,1.84,4.19,3.67,7.3,6.81,9.97,3.29,2.8,8.14,5.27,15.97,8.13,16.22,5.91,31.02,13.97,43.79,24.77h0ZM108.84,193.29c-2.08-.43-4.14-.91-6.17-1.42l-13.98,17.9c4.49,2.87,8.71,5.42,12.73,7.69l7.41-24.17h0Z"/>
    </g>
    <text class="cls-7" transform="translate(283.52 241.09)"><tspan x="0" y="0">WILD WV</tspan></text>
    <text/>
  </g>
</svg>