<?xml version="1.0" encoding="UTF-8"?>
<svg id="Layer_2" xmlns="http://www.w3.org/2000/svg" viewBox="0 0 2340 1560">
  <defs>
    <style>
      .cls-1 {
        fill: #76b943;
      }

      .cls-1, .cls-2, .cls-3, .cls-4, .cls-5 {
        fill-rule: evenodd;
      }

      .cls-2 {
        fill: #ec2029;
      }

      .cls-6 {
        fill: #fff;
      }

      .cls-7, .cls-8 {
        fill: #223236;
      }

      .cls-8 {
        font-family: Poppins-Black, Poppins;
        font-size: 36px;
        font-weight: 800;
        letter-spacing: .2em;
      }

      .cls-3 {
        fill: #ef4b27;
      }

      .cls-4 {
        fill: #e53728;
      }

      .cls-5 {
        fill: #ea1d28;
      }

      .cls-9 {
        font-family: Poppins-Regular, Poppins;
        font-size: 120px;
      }
    </style>
  </defs>
  <g id="Layer_1-2" data-name="Layer_1">
    <rect class="cls-6" width="2340" height="1560"/>
    <g>
      <path class="cls-1" d="M1257.51,949.25s-1.47-52.48-42.66-56.51c0,0,6.01,50.86,42.66,56.51h0Z"/>
      <path class="cls-2" d="M952.22,648.54c9.3-21.4,46.54-24.4,60.32-8.83,0,0,18.46,82.62,84.19,115.1,49.69,24.56,162.29,36.44,214.32,40.78,6.49-7.25,12.05-13.27,12.05-13.27l110.84,57.27,60.58,58.2s-158.76-76.24-161.97-72.1c-2.24,2.88-21.3.56-32.76-2.13-60.99,5.84-208.78,13.21-262.86-44.72-68.87-73.77-84.71-130.3-84.71-130.3h0Z"/>
      <path class="cls-5" d="M983.4,630.01c11.34-.74,22.77,2.48,29.15,9.7,0,0,18.46,82.62,84.19,115.1,49.69,24.56,162.29,36.44,214.32,40.78,1.81-2.02,3.55-3.95,5.11-5.67l14.7,7.78c-62.53,5.82-177.78,6.83-260.76-34.68-62.44-31.24-81.23-100.59-86.71-133.01h0Z"/>
      <path class="cls-3" d="M1041.08,550.74s-16.02,105.46,14.73,146.35c30.76,40.89,97.49,78.67,255.23,76.18,0,0-24.85-63.24-86.74-110.67-61.88-47.43-147.98-73.37-147.98-73.37l-35.25-38.48h0Z"/>
      <path class="cls-4" d="M1039.66,562.06c-3.12,28.32-8.45,102.32,16.16,135.03,30.76,40.89,97.49,78.67,255.23,76.18,0,0-16.78-42.68-57.09-84.22-24.09,14.55-66.45,31.44-120.77,17.8-86.78-21.79-93.33-144.91-93.33-144.91l-.2.12h0Z"/>
      <path class="cls-7" d="M1258.54,938.7c-.23-10.17-3.54-19.8-9.16-27.79-6.54-9.31-16.23-16.42-27.86-19.61-.05,3.11.26,6.36.97,9.64,1.38,6.47,4.22,13.07,8.54,19.22,5.02,7.14,10.13,11.53,15.87,14.43,3.47,1.75,7.33,3.04,11.65,4.11h0ZM958.71,536.24c-6.17.9-10.44,6.64-9.54,12.82.9,6.17,6.64,10.45,12.81,9.54,6.17-.9,10.45-6.64,9.54-12.82-.9-6.17-6.64-10.45-12.82-9.54h0ZM1029.81,595.48c-17.59,124.69,72.92,164.96,163,177.67,41.62,5.87,83.36,6.01,115,5.7-20.93-39.38-47.53-71.62-78.59-97.87-34.65-29.28-74.99-51.21-119.33-67.38-24.7-9-40.32-17.09-51.5-26.6-11.62-9.87-18.15-20.85-24.57-35.46-10-22.78-30.02-29.93-30.08-29.95l-11.4-4.16,6.7-10.1c10.44-15.73,11.02-39.39,9.65-56.53-17.73,21.66-35.5,39.91-54.27,57.04-19.17,17.48-39.48,33.82-61.94,51.46,47.4,17.31,64.4,62.59,81.88,109.16,12.48,33.26,25.23,67.23,49.82,89.49,30.22,27.37,79.33,46.12,133.19,55.53,57.66,10.07,120.32,9.32,171.06-3.07l6.82.89c.38.21,116.7,63.51,161.92,81.24-.43-.49-.87-1-1.33-1.51-19.98-22.37-58.62-55.36-75.33-64.86-16.23-9.23-62.62-35.16-93.88-52.62,1.79,3.46,3.54,6.98,5.25,10.54l6.48,13.52-14.99.17-5.51.06c-33.13.38-80.25.93-127.73-5.77-99.33-14.01-199.05-59.01-179.26-199.27l18.93,2.68h0ZM1241.53,666.39c24.98,21.11,47.21,45.82,66.14,74.68,14.02,7.82,95.29,53.17,122.3,68.52,18.03,10.24,59.14,45.2,80.13,68.7,5.27,5.9,9.44,11.25,11.9,15.57,4.94,8.66,4.79,15.67-2.12,20.21h-.04c-2.61,1.72-5.88,2.44-9.88,2.03-24.92-2.55-158.18-74.16-180.6-86.28-51.26,11.88-113.19,12.74-170.58,3.33l-22.96,74.86c31.24,16.22,58.61,26.21,86.78,32-2.47-2.58-4.87-5.51-7.22-8.86-5.85-8.32-9.71-17.34-11.61-26.25-2.02-9.48-1.83-18.89.51-27.29l2.14-7.68,7.92.72c1.46.13,2.44.23,2.89.29h0c1.14.16,2.08.3,2.82.43,18.91,3.3,34.71,13.97,44.96,28.55,9.26,13.18,13.99,29.54,12.37,46.54,36.13,1.58,77.3-.79,130.93-3.89,7.62-.44-11.01.63,0,.02v-.02s0,.02,0,.02l20.97-1.18,1.12,19.05c-31.94,1.81,2.63-.12-20.96,1.24-168.93,9.76-217.92,12.58-366.22-87.88-7.48-5.07-14.37-9.37-20.86-13.05l-64.76,33.74-8.83-16.94,52.22-27.21c-26.55-10.63-49.4-10.66-86.43-10.7-4.97,0-10.25-.01-12.54-.02l.07-19.15c6.39.02,9.44.03,12.47.03,58.64.06,84.15.09,139.38,37.5,4.18,2.83,8.27,5.57,12.29,8.23l36.13-46.26c-36.3-11.25-68.25-27.3-91-47.9-28.09-25.43-41.65-61.55-54.92-96.92-13.69-36.48-27.06-72.08-56.21-90.64-23.4-14.9-45.05-10.35-71.34-8.93,21.55-11.71,40.52-22.38,59.72-37.56,18.89-14.94,36.29-29.15,52.94-44.34,22.83-20.82,44.14-43.42,65.83-72.22l12.52-16.62,4.48,20.34c.03.15,10.97,48.99-4.33,83.34,9.28,5.62,23.01,16.57,31.27,35.38,5.26,11.98,10.48,20.86,19.46,28.49,9.41,7.99,23.25,15.06,45.64,23.22,46.34,16.89,88.62,39.92,125.12,70.77h0ZM1139.86,829.63c-5.94-1.24-11.82-2.59-17.62-4.05l-39.94,51.14c12.84,8.2,24.9,15.49,36.38,21.98l21.18-69.07h0Z"/>
    </g>
    <text class="cls-9" transform="translate(907.94 1092.26)"><tspan x="0" y="0">WILD WV</tspan></text>
    <text class="cls-8" transform="translate(929.03 1152.49)"><tspan x="0" y="0">NATURAL WONDERS</tspan></text>
  </g>
</svg>